<?xml version="1.0" encoding="UTF-8" standalone="no"?>
<!-- Created with Inkscape (http://www.inkscape.org/) -->

<svg
   xmlns:osb="http://www.openswatchbook.org/uri/2009/osb"
   xmlns:dc="http://purl.org/dc/elements/1.1/"
   xmlns:cc="http://creativecommons.org/ns#"
   xmlns:rdf="http://www.w3.org/1999/02/22-rdf-syntax-ns#"
   xmlns:svg="http://www.w3.org/2000/svg"
   xmlns="http://www.w3.org/2000/svg"
   xmlns:sodipodi="http://sodipodi.sourceforge.net/DTD/sodipodi-0.dtd"
   xmlns:inkscape="http://www.inkscape.org/namespaces/inkscape"
   width="989.94946"
   height="989.94946"
   id="svg2"
   version="1.1"
   inkscape:version="0.48.4 r9939"
   sodipodi:docname="check-io.svg"
   inkscape:export-filename="/home/yuheng/Downloads/checkio.png"
   inkscape:export-xdpi="46.549999"
   inkscape:export-ydpi="46.549999">
  <sodipodi:namedview
     id="base"
     pagecolor="#ffffff"
     bordercolor="#666666"
     borderopacity="1.0"
     inkscape:pageopacity="0.0"
     inkscape:pageshadow="2"
     inkscape:zoom="0.49497475"
     inkscape:cx="538.96254"
     inkscape:cy="393.922"
     inkscape:document-units="px"
     inkscape:current-layer="layer1"
     showgrid="false"
     inkscape:window-width="1085"
     inkscape:window-height="701"
     inkscape:window-x="165"
     inkscape:window-y="27"
     inkscape:window-maximized="0"
     fit-margin-top="0"
     fit-margin-left="0"
     fit-margin-right="0"
     fit-margin-bottom="0" />
  <defs
     id="defs4">
    <linearGradient
       osb:paint="solid"
       id="linearGradient5562">
      <stop
         id="stop5564"
         offset="0"
         style="stop-color:#000000;stop-opacity:1;" />
    </linearGradient>
    <clipPath
       clipPathUnits="userSpaceOnUse"
       id="clipPath3974">
      <path
         sodipodi:type="arc"
         style="fill:#713b99;fill-opacity:1;fill-rule:evenodd;stroke:none"
         id="path3976"
         sodipodi:cx="286.88333"
         sodipodi:cy="609.91534"
         sodipodi:rx="494.97473"
         sodipodi:ry="494.97473"
         d="m 781.85806,609.91534 a 494.97473,494.97473 0 1 1 -989.94946,0 494.97473,494.97473 0 1 1 989.94946,0 z"
         transform="translate(47.161497,-108.33886)" />
    </clipPath>
    <clipPath
       clipPathUnits="userSpaceOnUse"
       id="clipPath3978">
      <path
         sodipodi:type="arc"
         style="fill:#713b99;fill-opacity:1;fill-rule:evenodd;stroke:none"
         id="path3980"
         sodipodi:cx="286.88333"
         sodipodi:cy="609.91534"
         sodipodi:rx="494.97473"
         sodipodi:ry="494.97473"
         d="m 781.85806,609.91534 a 494.97473,494.97473 0 1 1 -989.94946,0 494.97473,494.97473 0 1 1 989.94946,0 z"
         transform="translate(47.161497,-108.33886)" />
    </clipPath>
    <clipPath
       clipPathUnits="userSpaceOnUse"
       id="clipPath3982">
      <path
         sodipodi:type="arc"
         style="fill:#713b99;fill-opacity:1;fill-rule:evenodd;stroke:none"
         id="path3984"
         sodipodi:cx="286.88333"
         sodipodi:cy="609.91534"
         sodipodi:rx="494.97473"
         sodipodi:ry="494.97473"
         d="m 781.85806,609.91534 a 494.97473,494.97473 0 1 1 -989.94946,0 494.97473,494.97473 0 1 1 989.94946,0 z"
         transform="translate(47.161497,-108.33886)" />
    </clipPath>
    <clipPath
       clipPathUnits="userSpaceOnUse"
       id="clipPath3986">
      <path
         sodipodi:type="arc"
         style="fill:#713b99;fill-opacity:1;fill-rule:evenodd;stroke:none"
         id="path3988"
         sodipodi:cx="286.88333"
         sodipodi:cy="609.91534"
         sodipodi:rx="494.97473"
         sodipodi:ry="494.97473"
         d="m 781.85806,609.91534 a 494.97473,494.97473 0 1 1 -989.94946,0 494.97473,494.97473 0 1 1 989.94946,0 z"
         transform="translate(47.161497,-108.33886)" />
    </clipPath>
    <clipPath
       clipPathUnits="userSpaceOnUse"
       id="clipPath3990">
      <path
         sodipodi:type="arc"
         style="fill:#713b99;fill-opacity:1;fill-rule:evenodd;stroke:none"
         id="path3992"
         sodipodi:cx="286.88333"
         sodipodi:cy="609.91534"
         sodipodi:rx="494.97473"
         sodipodi:ry="494.97473"
         d="m 781.85806,609.91534 a 494.97473,494.97473 0 1 1 -989.94946,0 494.97473,494.97473 0 1 1 989.94946,0 z"
         transform="translate(47.161497,-108.33886)" />
    </clipPath>
    <clipPath
       clipPathUnits="userSpaceOnUse"
       id="clipPath3994">
      <path
         sodipodi:type="arc"
         style="fill:#713b99;fill-opacity:1;fill-rule:evenodd;stroke:none"
         id="path3996"
         sodipodi:cx="286.88333"
         sodipodi:cy="609.91534"
         sodipodi:rx="494.97473"
         sodipodi:ry="494.97473"
         d="m 781.85806,609.91534 a 494.97473,494.97473 0 1 1 -989.94946,0 494.97473,494.97473 0 1 1 989.94946,0 z"
         transform="translate(47.161497,-108.33886)" />
    </clipPath>
    <clipPath
       clipPathUnits="userSpaceOnUse"
       id="clipPath3998">
      <path
         sodipodi:type="arc"
         style="fill:#713b99;fill-opacity:1;fill-rule:evenodd;stroke:none"
         id="path4000"
         sodipodi:cx="286.88333"
         sodipodi:cy="609.91534"
         sodipodi:rx="494.97473"
         sodipodi:ry="494.97473"
         d="m 781.85806,609.91534 a 494.97473,494.97473 0 1 1 -989.94946,0 494.97473,494.97473 0 1 1 989.94946,0 z"
         transform="translate(47.161497,-108.33886)" />
    </clipPath>
    <clipPath
       clipPathUnits="userSpaceOnUse"
       id="clipPath4002">
      <path
         sodipodi:type="arc"
         style="fill:#713b99;fill-opacity:1;fill-rule:evenodd;stroke:none"
         id="path4004"
         sodipodi:cx="286.88333"
         sodipodi:cy="609.91534"
         sodipodi:rx="494.97473"
         sodipodi:ry="494.97473"
         d="m 781.85806,609.91534 a 494.97473,494.97473 0 1 1 -989.94946,0 494.97473,494.97473 0 1 1 989.94946,0 z"
         transform="translate(47.161497,-108.33886)" />
    </clipPath>
  </defs>
  <metadata
     id="metadata7">
    <rdf:RDF>
      <cc:Work
         rdf:about="">
        <dc:format>image/svg+xml</dc:format>
        <dc:type
           rdf:resource="http://purl.org/dc/dcmitype/StillImage" />
        <dc:title></dc:title>
      </cc:Work>
    </rdf:RDF>
  </metadata>
  <g
     style="display:inline"
     transform="translate(160.9299,-6.6017528)"
     id="layer1"
     inkscape:groupmode="layer"
     inkscape:label="Layer 1">
    <path
       transform="translate(47.161497,-108.33886)"
       d="m 781.85806,609.91534 c 0,273.367 -221.60773,494.97476 -494.97473,494.97476 -273.366994,0 -494.97473,-221.60776 -494.97473,-494.97476 0,-273.36699 221.607736,-494.97473 494.97473,-494.97473 273.367,0 494.97473,221.60774 494.97473,494.97473 z"
       sodipodi:ry="494.97473"
       sodipodi:rx="494.97473"
       sodipodi:cy="609.91534"
       sodipodi:cx="286.88333"
       id="path3014"
       style="fill:#713b99;fill-opacity:1;fill-rule:evenodd;stroke:none"
       sodipodi:type="arc" />
    <g
       style="fill:#000000;fill-opacity:0.11707315;stroke:none"
       id="g3782"
       clip-path="url(#clipPath4002)">
      <path
         inkscape:connector-curvature="0"
         d="m 367.10378,806.62192 -115.15739,115.15739 -800,0 115.15739,-115.15739 z"
         id="path3784" />
      <path
         inkscape:connector-curvature="0"
         d="m 251.94639,921.77931 -87.88327,-87.88327 -800,0 87.88327,87.88327 z"
         id="path3786" />
    </g>
    <path
       style="fill:#000000;fill-opacity:0.11707315;stroke:none"
       d="M 367.10378,806.62192 251.94639,921.77931 164.06312,833.89604"
       id="path3867-0"
       inkscape:connector-curvature="0"
       inkscape:export-filename="/home/yuheng/Downloads/path2985-9.png"
       inkscape:export-xdpi="90"
       inkscape:export-ydpi="90"
       clip-path="url(#clipPath3998)" />
    <g
       style="fill:#000000;fill-opacity:0.11707315;stroke:none"
       id="g3796"
       clip-path="url(#clipPath3994)">
      <path
         inkscape:connector-curvature="0"
         d="m 605.49977,689.44422 -103.03555,76.77159 -800,0 103.03555,-76.77159 z"
         id="path3798" />
      <path
         inkscape:connector-curvature="0"
         d="m 502.46422,766.21581 -131.31983,-48.48731 -800,0 131.31983,48.48731 z"
         id="path3800" />
      <path
         inkscape:connector-curvature="0"
         d="m 371.14439,717.7285 -123.23861,-20.20305 -800,0 123.23861,20.20305 z"
         id="path3802" />
      <path
         inkscape:connector-curvature="0"
         d="m 247.90578,697.52545 -78.7919,78.7919 -800,0 78.7919,-78.7919 z"
         id="path3804" />
    </g>
    <path
       style="fill:#000000;fill-opacity:0.11707315;stroke:none"
       d="M 605.49977,689.44422 502.46422,766.21581 371.14439,717.7285 247.90578,697.52545 l -78.7919,78.7919"
       id="path3869-7"
       inkscape:connector-curvature="0"
       sodipodi:nodetypes="ccccc"
       inkscape:export-filename="/home/yuheng/Downloads/path2985-9.png"
       inkscape:export-xdpi="90"
       inkscape:export-ydpi="90"
       clip-path="url(#clipPath3990)" />
    <g
       style="fill:#000000;fill-opacity:0.11707315;stroke:none"
       id="g3809"
       clip-path="url(#clipPath3986)">
      <path
         inkscape:connector-curvature="0"
         d="m 369.12409,677.3224 0,127.27922 -800,0 0,-127.27922 z"
         id="path3811" />
      <path
         inkscape:connector-curvature="0"
         d="m 369.12409,804.60162 151.80777,26.67968 -800,0 -151.80777,-26.67968 z"
         id="path3813" />
      <path
         inkscape:connector-curvature="0"
         d="m 520.93186,831.2813 30.30458,98.57923 -800,0 -30.30458,-98.57923 z"
         id="path3815" />
    </g>
    <path
       style="fill:#000000;fill-opacity:0.11707315;stroke:none"
       d="m 369.12409,677.3224 0,127.27922 151.80777,26.67968 30.30458,98.57923"
       id="path3865-8"
       inkscape:connector-curvature="0"
       sodipodi:nodetypes="cccc"
       inkscape:export-filename="/home/yuheng/Downloads/path2985-9.png"
       inkscape:export-xdpi="90"
       inkscape:export-ydpi="90"
       clip-path="url(#clipPath3982)" />
    <g
       style="fill:#000000;fill-opacity:0.11707315;stroke:none"
       id="g3820"
       clip-path="url(#clipPath3978)">
      <path
         inkscape:connector-curvature="0"
         d="m 529.99999,319.50669 -152.85714,111.42857 -800,0 152.85714,-111.42857 z"
         id="path3822" />
      <path
         inkscape:connector-curvature="0"
         d="m 377.14285,430.93526 -90,-60 -800,0 90,60 z"
         id="path3824" />
    </g>
    <path
       style="fill:#000000;fill-opacity:0.11707315;stroke:none"
       d="m 529.99999,319.50669 -152.85714,111.42857 -90,-60"
       id="path3871-2"
       inkscape:connector-curvature="0"
       inkscape:export-filename="/home/yuheng/Downloads/path2985-9.png"
       inkscape:export-xdpi="90"
       inkscape:export-ydpi="90"
       clip-path="url(#clipPath3974)" />
  </g>
  <g
     style="display:inline"
     inkscape:label="Layer 1 copy"
     inkscape:groupmode="layer"
     id="g2990"
     transform="translate(160.9299,-6.6017528)">
    <path
       transform="translate(1.4285612,12.858794)"
       sodipodi:type="arc"
       style="fill:none;stroke:#ffffff;stroke-width:45;stroke-linecap:butt;stroke-linejoin:miter;stroke-miterlimit:4;stroke-opacity:1;stroke-dasharray:135, 45;stroke-dashoffset:0"
       id="path2994"
       sodipodi:cx="375.71429"
       sodipodi:cy="402.36218"
       sodipodi:rx="238.57143"
       sodipodi:ry="238.57143"
       d="m 614.28572,402.36218 a 238.57143,238.57143 0 1 1 -477.14285,0 238.57143,238.57143 0 1 1 477.14285,0 z"
       inkscape:export-xdpi="90"
       inkscape:export-ydpi="90" />
    <path
       style="fill:none;stroke:#ffffff;stroke-width:30;stroke-linecap:round;stroke-linejoin:round;stroke-miterlimit:4;stroke-opacity:1;stroke-dasharray:120, 60;stroke-dashoffset:0"
       d="m 369.12409,677.3224 0,127.27922 151.80777,26.67968 30.30458,98.57923"
       id="path2996"
       inkscape:connector-curvature="0"
       sodipodi:nodetypes="cccc"
       inkscape:export-filename="/home/yuheng/Downloads/path2985-9.png"
       inkscape:export-xdpi="90"
       inkscape:export-ydpi="90" />
    <path
       style="fill:none;stroke:#ffffff;stroke-width:30;stroke-linecap:round;stroke-linejoin:round;stroke-miterlimit:4;stroke-opacity:1;stroke-dasharray:120, 60;stroke-dashoffset:0"
       d="M 367.10378,806.62192 251.94639,921.77931 164.06312,833.89604"
       id="path2998"
       inkscape:connector-curvature="0"
       inkscape:export-filename="/home/yuheng/Downloads/path2985-9.png"
       inkscape:export-xdpi="90"
       inkscape:export-ydpi="90" />
    <path
       style="fill:none;stroke:#ffffff;stroke-width:30;stroke-linecap:round;stroke-linejoin:round;stroke-miterlimit:4;stroke-opacity:1;stroke-dasharray:120, 60;stroke-dashoffset:0"
       d="M 605.49977,689.44422 502.46422,766.21581 371.14439,717.7285 247.90578,697.52545 l -78.7919,78.7919"
       id="path3000"
       inkscape:connector-curvature="0"
       sodipodi:nodetypes="ccccc"
       inkscape:export-filename="/home/yuheng/Downloads/path2985-9.png"
       inkscape:export-xdpi="90"
       inkscape:export-ydpi="90" />
    <path
       style="fill:none;stroke:#ffffff;stroke-width:30;stroke-linecap:round;stroke-linejoin:round;stroke-miterlimit:4;stroke-opacity:1;stroke-dasharray:none;stroke-dashoffset:0"
       d="m 529.99999,319.50669 -152.85714,111.42857 -90,-60"
       id="path3002"
       inkscape:connector-curvature="0"
       inkscape:export-filename="/home/yuheng/Downloads/path2985-9.png"
       inkscape:export-xdpi="90"
       inkscape:export-ydpi="90" />
  </g>
</svg>
