<?xml version="1.0" encoding="UTF-8" standalone="no"?>
<!-- Created with Inkscape (http://www.inkscape.org/) -->

<svg
   xmlns:osb="http://www.openswatchbook.org/uri/2009/osb"
   xmlns:dc="http://purl.org/dc/elements/1.1/"
   xmlns:cc="http://creativecommons.org/ns#"
   xmlns:rdf="http://www.w3.org/1999/02/22-rdf-syntax-ns#"
   xmlns:svg="http://www.w3.org/2000/svg"
   xmlns="http://www.w3.org/2000/svg"
   xmlns:sodipodi="http://sodipodi.sourceforge.net/DTD/sodipodi-0.dtd"
   xmlns:inkscape="http://www.inkscape.org/namespaces/inkscape"
   inkscape:export-ydpi="4.4470587"
   inkscape:export-xdpi="4.4470587"
   inkscape:export-filename="/home/yuheng/Downloads/ic_launcher-48.png"
   sodipodi:docname="checkio-v2 (copy).svg"
   inkscape:version="0.48.4 r9939"
   version="1.1"
   id="svg2"
   height="971.42859"
   width="971.42859">
  <sodipodi:namedview
     id="base"
     pagecolor="#ffffff"
     bordercolor="#666666"
     borderopacity="1.0"
     inkscape:pageopacity="0.0"
     inkscape:pageshadow="2"
     inkscape:zoom="0.49497475"
     inkscape:cx="234.80029"
     inkscape:cy="430.25154"
     inkscape:document-units="px"
     showgrid="false"
     inkscape:window-width="1366"
     inkscape:window-height="702"
     inkscape:window-x="0"
     inkscape:window-y="27"
     inkscape:window-maximized="1"
     fit-margin-top="0"
     fit-margin-left="0"
     fit-margin-right="0"
     fit-margin-bottom="0"
     inkscape:current-layer="layer1" />
  <defs
     id="defs4">
    <linearGradient
       osb:paint="solid"
       id="linearGradient5562">
      <stop
         id="stop5564"
         offset="0"
         style="stop-color:#000000;stop-opacity:1;" />
    </linearGradient>
    <clipPath
       clipPathUnits="userSpaceOnUse"
       id="clipPath6218">
      <path
         sodipodi:type="arc"
         style="fill:#713b99;fill-opacity:1;stroke:none"
         id="path6220"
         sodipodi:cx="-67.14286"
         sodipodi:cy="543.79077"
         sodipodi:rx="294.28571"
         sodipodi:ry="294.28571"
         d="m 227.14285,543.79077 a 294.28571,294.28571 0 1 1 -588.57142,0 294.28571,294.28571 0 1 1 588.57142,0 z"
         transform="matrix(1.6504855,0,0,1.6504855,482.2469,-365.15821)" />
    </clipPath>
    <clipPath
       clipPathUnits="userSpaceOnUse"
       id="clipPath6222">
      <path
         sodipodi:type="arc"
         style="fill:#713b99;fill-opacity:1;stroke:none"
         id="path6224"
         sodipodi:cx="-67.14286"
         sodipodi:cy="543.79077"
         sodipodi:rx="294.28571"
         sodipodi:ry="294.28571"
         d="m 227.14285,543.79077 a 294.28571,294.28571 0 1 1 -588.57142,0 294.28571,294.28571 0 1 1 588.57142,0 z"
         transform="matrix(1.6504855,0,0,1.6504855,485.10403,-359.44227)" />
    </clipPath>
    <clipPath
       clipPathUnits="userSpaceOnUse"
       id="clipPath6226">
      <path
         sodipodi:type="arc"
         style="fill:#713b99;fill-opacity:1;stroke:none"
         id="path6228"
         sodipodi:cx="-67.14286"
         sodipodi:cy="543.79077"
         sodipodi:rx="294.28571"
         sodipodi:ry="294.28571"
         d="m 227.14285,543.79077 a 294.28571,294.28571 0 1 1 -588.57142,0 294.28571,294.28571 0 1 1 588.57142,0 z"
         transform="matrix(1.6504855,0,0,1.6504855,485.10403,-359.44227)" />
    </clipPath>
    <clipPath
       clipPathUnits="userSpaceOnUse"
       id="clipPath6230">
      <path
         sodipodi:type="arc"
         style="fill:#713b99;fill-opacity:1;stroke:none"
         id="path6232"
         sodipodi:cx="-67.14286"
         sodipodi:cy="543.79077"
         sodipodi:rx="294.28571"
         sodipodi:ry="294.28571"
         d="m 227.14285,543.79077 a 294.28571,294.28571 0 1 1 -588.57142,0 294.28571,294.28571 0 1 1 588.57142,0 z"
         transform="matrix(1.6504855,0,0,1.6504855,485.10403,-359.44227)" />
    </clipPath>
    <clipPath
       clipPathUnits="userSpaceOnUse"
       id="clipPath6236">
      <path
         sodipodi:type="arc"
         style="fill:#713b99;fill-opacity:1;stroke:none"
         id="path6238"
         sodipodi:cx="-67.14286"
         sodipodi:cy="543.79077"
         sodipodi:rx="294.28571"
         sodipodi:ry="294.28571"
         d="m 227.14285,543.79077 a 294.28571,294.28571 0 1 1 -588.57142,0 294.28571,294.28571 0 1 1 588.57142,0 z"
         transform="matrix(1.6504855,0,0,1.6504855,485.10403,-359.44227)" />
    </clipPath>
  </defs>
  <metadata
     id="metadata7">
    <rdf:RDF>
      <cc:Work
         rdf:about="">
        <dc:format>image/svg+xml</dc:format>
        <dc:type
           rdf:resource="http://purl.org/dc/dcmitype/StillImage" />
        <dc:title></dc:title>
      </cc:Work>
    </rdf:RDF>
  </metadata>
  <g
     transform="translate(111.42858,-52.362223)"
     id="layer1"
     inkscape:groupmode="layer"
     inkscape:label="Layer 1">
    <path
       transform="matrix(1.6504855,0,0,1.6504855,485.10403,-359.44227)"
       d="m 227.14285,543.79077 c 0,162.52951 -131.756203,294.28571 -294.28571,294.28571 -162.52951,0 -294.28571,-131.7562 -294.28571,-294.28571 0,-162.52951 131.7562,-294.2857 294.28571,-294.2857 162.529507,0 294.28571,131.75619 294.28571,294.2857 z"
       sodipodi:ry="294.28571"
       sodipodi:rx="294.28571"
       sodipodi:cy="543.79077"
       sodipodi:cx="-67.14286"
       id="path3766"
       style="fill:#713b99;fill-opacity:1;stroke:none"
       sodipodi:type="arc" />
    <g
       id="g6096"
       style="stroke:none;fill:#000000;fill-opacity:0.10243902"
       clip-path="url(#clipPath6230)">
      <g
         id="g6098"
         style="fill:#000000;stroke:none;stroke-width:37;stroke-linecap:round;stroke-linejoin:round;stroke-miterlimit:4;stroke-opacity:1;stroke-dasharray:none;stroke-dashoffset:0;fill-opacity:0.10243902">
        <path
           id="path6100"
           d="M367.10378 806.62192L251.94639 921.77931L-548.05361 921.77931L-432.89622 806.62192Z"
           style="stroke:none;fill:#000000;fill-opacity:0.10243902" />
        <path
           id="path6102"
           d="M251.94639 921.77931L164.06312 833.89604L-635.93688 833.89604L-548.05361 921.77931Z"
           style="stroke:none;fill:#000000;fill-opacity:0.10243902" />
      </g>
      <path
         inkscape:export-ydpi="90"
         inkscape:export-xdpi="90"
         inkscape:export-filename="/home/yuheng/Downloads/path2985-9.png"
         inkscape:connector-curvature="0"
         id="path3867-0"
         d="M 367.10378,806.62192 251.94639,921.77931 164.06312,833.89604"
         style="fill:#000000;stroke:none;stroke-width:37;stroke-linecap:round;stroke-linejoin:round;stroke-miterlimit:4;stroke-opacity:1;stroke-dasharray:none;stroke-dashoffset:0;fill-opacity:0.10243902" />
    </g>
    <g
       id="g6105"
       style="stroke:none;fill:#000000;fill-opacity:0.10243902"
       clip-path="url(#clipPath6236)">
      <g
         id="g6107"
         style="fill:#000000;stroke:none;stroke-width:58.79999923999999822;stroke-linecap:round;stroke-linejoin:round;stroke-miterlimit:4;stroke-opacity:1;stroke-dasharray:none;stroke-dashoffset:0;fill-opacity:0.10243902">
        <path
           id="path6109"
           d="M534.2857 318.07812L381.42856 429.50669L-418.57144 429.50669L-265.7143 318.07812Z"
           style="stroke:none;fill:#000000;fill-opacity:0.10243902" />
        <path
           id="path6111"
           d="M381.42856 429.50669L291.42856 369.50669L-508.57144 369.50669L-418.57144 429.50669Z"
           style="stroke:none;fill:#000000;fill-opacity:0.10243902" />
      </g>
      <path
         inkscape:export-ydpi="90"
         inkscape:export-xdpi="90"
         inkscape:export-filename="/home/yuheng/Downloads/path2985-9.png"
         inkscape:connector-curvature="0"
         id="path3871-2"
         d="m 534.2857,318.07812 -152.85714,111.42857 -90,-60"
         style="fill:#000000;stroke:none;stroke-width:58.79999923999999822;stroke-linecap:round;stroke-linejoin:round;stroke-miterlimit:4;stroke-opacity:1;stroke-dasharray:none;stroke-dashoffset:0;fill-opacity:0.10243902" />
    </g>
    <g
       id="g6114"
       style="stroke:none;fill:#000000;fill-opacity:0.10243902"
       clip-path="url(#clipPath6226)">
      <g
         id="g6116"
         style="fill:#000000;stroke:none;stroke-width:37;stroke-linecap:round;stroke-linejoin:round;stroke-miterlimit:4;stroke-opacity:1;stroke-dasharray:none;stroke-dashoffset:0;fill-opacity:0.10243902">
        <path
           id="path6118"
           d="M605.49977 689.44422L502.46422 766.21581L-297.53578 766.21581L-194.50023 689.44422Z"
           style="stroke:none;fill:#000000;fill-opacity:0.10243902" />
        <path
           id="path6120"
           d="M502.46422 766.21581L371.14439 717.7285L-428.85561 717.7285L-297.53578 766.21581Z"
           style="stroke:none;fill:#000000;fill-opacity:0.10243902" />
        <path
           id="path6122"
           d="M371.14439 717.7285L247.90578 697.52545L-552.09422 697.52545L-428.85561 717.7285Z"
           style="stroke:none;fill:#000000;fill-opacity:0.10243902" />
        <path
           id="path6124"
           d="M247.90578 697.52545L169.11388 776.31735L-630.88612 776.31735L-552.09422 697.52545Z"
           style="stroke:none;fill:#000000;fill-opacity:0.10243902" />
      </g>
      <path
         inkscape:export-ydpi="90"
         inkscape:export-xdpi="90"
         inkscape:export-filename="/home/yuheng/Downloads/path2985-9.png"
         sodipodi:nodetypes="ccccc"
         inkscape:connector-curvature="0"
         id="path3869-7"
         d="M 605.49977,689.44422 502.46422,766.21581 371.14439,717.7285 247.90578,697.52545 l -78.7919,78.7919"
         style="fill:#000000;stroke:none;stroke-width:37;stroke-linecap:round;stroke-linejoin:round;stroke-miterlimit:4;stroke-opacity:1;stroke-dasharray:none;stroke-dashoffset:0;fill-opacity:0.10243902" />
    </g>
    <g
       id="g6127"
       style="stroke:none;fill:#000000;fill-opacity:0.14634146"
       clip-path="url(#clipPath6222)"
       inkscape:export-xdpi="47.435295"
       inkscape:export-ydpi="47.435295">
      <g
         id="g6129"
         style="fill:#000000;stroke:none;stroke-width:37;stroke-linecap:round;stroke-linejoin:round;stroke-miterlimit:4;stroke-opacity:1;stroke-dasharray:none;stroke-dashoffset:0;fill-opacity:0.14634146">
        <path
           id="path6131"
           d="M369.12409 677.3224L369.12409 804.60162L-430.87591 804.60162L-430.87591 677.3224Z"
           style="stroke:none;fill:#000000;fill-opacity:0.14634146" />
        <path
           id="path6133"
           d="M369.12409 804.60162L520.93186 831.2813L-279.06814 831.2813L-430.87591 804.60162Z"
           style="stroke:none;fill:#000000;fill-opacity:0.14634146" />
        <path
           id="path6135"
           d="M520.93186 831.2813L551.23644 929.86053L-248.76356 929.86053L-279.06814 831.2813Z"
           style="stroke:none;fill:#000000;fill-opacity:0.14634146" />
      </g>
      <path
         inkscape:export-ydpi="90"
         inkscape:export-xdpi="90"
         inkscape:export-filename="/home/yuheng/Downloads/path2985-9.png"
         sodipodi:nodetypes="cccc"
         inkscape:connector-curvature="0"
         id="path3865-8"
         d="m 369.12409,677.3224 0,127.27922 151.80777,26.67968 30.30458,98.57923"
         style="fill:#000000;stroke:none;stroke-width:37;stroke-linecap:round;stroke-linejoin:round;stroke-miterlimit:4;stroke-opacity:1;stroke-dasharray:none;stroke-dashoffset:0;fill-opacity:0.14634146" />
    </g>
    <g
       id="g6138"
       transform="translate(2.8571326,5.7159369)"
       style="stroke:none;fill:#000000;fill-opacity:0.14634146"
       clip-path="url(#clipPath6218)"
       inkscape:export-filename="/home/yuheng/Dropbox/Application Data/Check IO/g6127.png"
       inkscape:export-xdpi="47.435295"
       inkscape:export-ydpi="47.435295">
      <g
         id="g6140"
         style="fill:#000000;stroke:none;stroke-width:58.79999923999999822;stroke-linecap:butt;stroke-linejoin:miter;stroke-miterlimit:4;stroke-opacity:1;stroke-dasharray:none;stroke-dashoffset:0;fill-opacity:0.14634146">
        <path
           id="path6142"
           d="M614.28572 402.36218C614.28572 534.12154 507.47365 640.93361 375.71429 640.93361L-424.28571 640.93361C-292.52635 640.93361 -185.71428 534.12154 -185.71428 402.36218Z"
           style="stroke:none;fill:#000000;fill-opacity:0.14634146" />
        <path
           id="path6144"
           d="M375.71429 640.93361C375.71429 640.93361 375.71429 640.93361 375.71429 640.93361L-424.28571 640.93361C-424.28571 640.93361 -424.28571 640.93361 -424.28571 640.93361Z"
           style="stroke:none;fill:#000000;fill-opacity:0.14634146" />
        <path
           id="path6146"
           d="M375.71429 640.93361C243.95493 640.93361 137.14287 534.12154 137.14287 402.36218L-662.85713 402.36218C-662.85713 534.12154 -556.04507 640.93361 -424.28571 640.93361Z"
           style="stroke:none;fill:#000000;fill-opacity:0.14634146" />
        <path
           id="path6148"
           d="M137.14287 402.36218C137.14287 270.60282 243.95493 163.79076 375.71429 163.79076L-424.28571 163.79076C-556.04507 163.79076 -662.85713 270.60282 -662.85713 402.36218Z"
           style="stroke:none;fill:#000000;fill-opacity:0.14634146" />
        <path
           id="path6150"
           d="M375.71429 163.79076C375.71429 163.79076 375.71429 163.79076 375.71429 163.79076L-424.28571 163.79076C-424.28571 163.79076 -424.28571 163.79076 -424.28571 163.79076Z"
           style="stroke:none;fill:#000000;fill-opacity:0.14634146" />
        <path
           id="path6152"
           d="M375.71429 163.79076C507.47365 163.79076 614.28572 270.60282 614.28572 402.36218L-185.71428 402.36218C-185.71428 270.60282 -292.52635 163.79076 -424.28571 163.79076Z"
           style="stroke:none;fill:#000000;fill-opacity:0.14634146" />
      </g>
      <path
         inkscape:export-ydpi="90"
         inkscape:export-xdpi="90"
         d="m 614.28572,402.36218 c 0,131.75936 -106.81207,238.57143 -238.57143,238.57143 -131.75936,0 -238.57142,-106.81207 -238.57142,-238.57143 0,-131.75936 106.81206,-238.57142 238.57142,-238.57142 131.75936,0 238.57143,106.81206 238.57143,238.57142 z"
         sodipodi:ry="238.57143"
         sodipodi:rx="238.57143"
         sodipodi:cy="402.36218"
         sodipodi:cx="375.71429"
         id="path2985-9"
         style="fill:#000000;stroke:none;stroke-width:58.79999923999999822;stroke-linecap:butt;stroke-linejoin:miter;stroke-miterlimit:4;stroke-opacity:1;stroke-dasharray:none;stroke-dashoffset:0;fill-opacity:0.14634146"
         sodipodi:type="arc"
         transform="" />
    </g>
  </g>
  <g
     style="display:inline"
     inkscape:label="Layer"
     id="layer7"
     inkscape:groupmode="layer">
    <g
       id="g6068"
       transform="translate(111.42858,-52.362223)">
      <path
         inkscape:export-ydpi="90"
         inkscape:export-xdpi="90"
         d="m 614.28572,402.36218 a 238.57143,238.57143 0 1 1 -477.14285,0 238.57143,238.57143 0 1 1 477.14285,0 z"
         sodipodi:ry="238.57143"
         sodipodi:rx="238.57143"
         sodipodi:cy="402.36218"
         sodipodi:cx="375.71429"
         id="path6058"
         style="fill:none;stroke:#ffffff;stroke-width:58.79999924;stroke-linecap:butt;stroke-linejoin:miter;stroke-miterlimit:4;stroke-opacity:1;stroke-dasharray:none;stroke-dashoffset:0"
         sodipodi:type="arc"
         transform="translate(2.8571326,5.7159369)" />
      <path
         inkscape:export-ydpi="90"
         inkscape:export-xdpi="90"
         inkscape:export-filename="/home/yuheng/Downloads/path2985-9.png"
         sodipodi:nodetypes="cccc"
         inkscape:connector-curvature="0"
         id="path6060"
         d="m 369.12409,677.3224 0,127.27922 151.80777,26.67968 30.30458,98.57923"
         style="fill:none;stroke:#ffffff;stroke-width:37;stroke-linecap:round;stroke-linejoin:round;stroke-miterlimit:4;stroke-opacity:1;stroke-dasharray:none;stroke-dashoffset:0" />
      <path
         inkscape:export-ydpi="90"
         inkscape:export-xdpi="90"
         inkscape:export-filename="/home/yuheng/Downloads/path2985-9.png"
         inkscape:connector-curvature="0"
         id="path6062"
         d="M 367.10378,806.62192 251.94639,921.77931 164.06312,833.89604"
         style="fill:none;stroke:#ffffff;stroke-width:37;stroke-linecap:round;stroke-linejoin:round;stroke-miterlimit:4;stroke-opacity:1;stroke-dasharray:none;stroke-dashoffset:0" />
      <path
         inkscape:export-ydpi="90"
         inkscape:export-xdpi="90"
         inkscape:export-filename="/home/yuheng/Downloads/path2985-9.png"
         sodipodi:nodetypes="ccccc"
         inkscape:connector-curvature="0"
         id="path6064"
         d="M 605.49977,689.44422 502.46422,766.21581 371.14439,717.7285 247.90578,697.52545 l -78.7919,78.7919"
         style="fill:none;stroke:#ffffff;stroke-width:37;stroke-linecap:round;stroke-linejoin:round;stroke-miterlimit:4;stroke-opacity:1;stroke-dasharray:none;stroke-dashoffset:0" />
      <path
         inkscape:export-ydpi="90"
         inkscape:export-xdpi="90"
         inkscape:export-filename="/home/yuheng/Downloads/path2985-9.png"
         inkscape:connector-curvature="0"
         id="path6066"
         d="m 534.2857,318.07812 -152.85714,111.42857 -90,-60"
         style="fill:none;stroke:#ffffff;stroke-width:58.79999924;stroke-linecap:round;stroke-linejoin:round;stroke-miterlimit:4;stroke-opacity:1;stroke-dasharray:none;stroke-dashoffset:0" />
    </g>
  </g>
</svg>
